<svg viewBox="0 0 40 40" fill="none" xmlns="http://www.w3.org/2000/svg">
<rect width="40" height="40" fill="#D9D9D9" fill-opacity="0.01"/>
<mask id="path-2-inside-1_94_2795" fill="white">
<path d="M10 10H30V23.5532H10V10Z"/>
</mask>
<path d="M10 10V9H9V10H10ZM30 10H31V9H30V10ZM30 23.5532V24.0532H31V23.5532H30ZM10 23.5532H9V24.0532H10V23.5532ZM10 11H30V9H10V11ZM29 10V23.5532H31V10H29ZM30 23.0532H10V24.0532H30V23.0532ZM11 23.5532V10H9V23.5532H11Z" fill="black" mask="url(#path-2-inside-1_94_2795)"/>
<mask id="path-4-inside-2_94_2795" fill="white">
<path d="M10 23.5532H16.6667V30H10V23.5532Z"/>
</mask>
<path d="M10 23.5532V23.0532H9V23.5532H10ZM16.6667 23.5532H17.1667V23.0532H16.6667V23.5532ZM16.6667 30V31H17.1667V30H16.6667ZM10 30H9V31H10V30ZM10 24.0532H16.6667V23.0532H10V24.0532ZM16.1667 23.5532V30H17.1667V23.5532H16.1667ZM16.6667 29H10V31H16.6667V29ZM11 30V23.5532H9V30H11Z" fill="black" mask="url(#path-4-inside-2_94_2795)"/>
<mask id="path-6-inside-3_94_2795" fill="white">
<path d="M16.6666 23.5532H23.3333V30H16.6666V23.5532Z"/>
</mask>
<path d="M16.6666 23.5532V23.0532H16.1666V23.5532H16.6666ZM23.3333 23.5532H23.8333V23.0532H23.3333V23.5532ZM23.3333 30V31H23.8333V30H23.3333ZM16.6666 30H16.1666V31H16.6666V30ZM16.6666 24.0532H23.3333V23.0532H16.6666V24.0532ZM22.8333 23.5532V30H23.8333V23.5532H22.8333ZM23.3333 29H16.6666V31H23.3333V29ZM17.1666 30V23.5532H16.1666V30H17.1666Z" fill="black" mask="url(#path-6-inside-3_94_2795)"/>
<mask id="path-8-inside-4_94_2795" fill="white">
<path d="M23.3334 23.5532H30V30H23.3334V23.5532Z"/>
</mask>
<path d="M23.3334 23.5532V23.0532H22.8334V23.5532H23.3334ZM30 23.5532H31V23.0532H30V23.5532ZM30 30V31H31V30H30ZM23.3334 30H22.8334V31H23.3334V30ZM23.3334 24.0532H30V23.0532H23.3334V24.0532ZM29 23.5532V30H31V23.5532H29ZM30 29H23.3334V31H30V29ZM23.8334 30V23.5532H22.8334V30H23.8334Z" fill="black" mask="url(#path-8-inside-4_94_2795)"/>
<path d="M20.6117 13.887V16.6995H23.4242C23.7563 16.6995 24.0492 16.9924 24.0492 17.3245C24.0492 17.676 23.7563 17.9495 23.4242 17.9495H20.6117V20.762C20.6117 21.1135 20.3188 21.387 19.9867 21.387C19.6352 21.387 19.3617 21.1135 19.3617 20.762V17.9495H16.5492C16.1977 17.9495 15.9242 17.676 15.9242 17.3245C15.9242 16.9924 16.1977 16.6995 16.5492 16.6995H19.3617V13.887C19.3617 13.5549 19.6352 13.262 19.9867 13.262C20.3188 13.262 20.6117 13.5549 20.6117 13.887Z" fill="black"/>
</svg>
