<svg viewBox="0 0 20 20" fill="none" xmlns="http://www.w3.org/2000/svg">
<mask id="path-1-inside-1_94_2789" fill="white">
<path d="M0 20L2.38497e-07 3.62396e-05L13.5532 3.64012e-05L13.5532 20L0 20Z"/>
</mask>
<path d="M0 20L-1 20L-1 21L-1.19249e-08 21L0 20ZM2.38497e-07 3.62396e-05L2.50422e-07 -0.999964L-1 -0.999964L-1 3.62277e-05L2.38497e-07 3.62396e-05ZM13.5532 3.64012e-05L14.0532 3.64072e-05L14.0532 -0.999964L13.5532 -0.999964L13.5532 3.64012e-05ZM13.5532 20L13.5532 21L14.0532 21L14.0532 20L13.5532 20ZM1 20L1 3.62515e-05L-1 3.62277e-05L-1 20L1 20ZM2.26572e-07 1.00004L13.5532 1.00004L13.5532 -0.999964L2.50422e-07 -0.999964L2.26572e-07 1.00004ZM13.0532 3.63953e-05L13.0532 20L14.0532 20L14.0532 3.64072e-05L13.0532 3.63953e-05ZM13.5532 19L1.19249e-08 19L-1.19249e-08 21L13.5532 21L13.5532 19Z" fill="black" mask="url(#path-1-inside-1_94_2789)"/>
<mask id="path-3-inside-2_94_2789" fill="white">
<path d="M13.5532 20L13.5532 13.3333L20.0001 13.3333L20.0001 20L13.5532 20Z"/>
</mask>
<path d="M13.5532 20L13.0532 20L13.0532 21L13.5532 21L13.5532 20ZM13.5532 13.3333L13.5532 12.8333L13.0532 12.8333L13.0532 13.3333L13.5532 13.3333ZM20.0001 13.3333L21.0001 13.3333L21.0001 12.8333L20.0001 12.8333L20.0001 13.3333ZM20.0001 20L20.0001 21L21.0001 21L21.0001 20L20.0001 20ZM14.0532 20L14.0532 13.3333L13.0532 13.3333L13.0532 20L14.0532 20ZM13.5532 13.8333L20.0001 13.8333L20.0001 12.8333L13.5532 12.8333L13.5532 13.8333ZM19.0001 13.3333L19.0001 20L21.0001 20L21.0001 13.3333L19.0001 13.3333ZM20.0001 19L13.5532 19L13.5532 21L20.0001 21L20.0001 19Z" fill="black" mask="url(#path-3-inside-2_94_2789)"/>
<mask id="path-5-inside-3_94_2789" fill="white">
<path d="M13.5532 13.3334L13.5532 6.66672L20.0001 6.66672L20.0001 13.3334L13.5532 13.3334Z"/>
</mask>
<path d="M13.5532 13.3334L13.0532 13.3334L13.0532 13.8334L13.5532 13.8334L13.5532 13.3334ZM13.5532 6.66672L13.5532 6.16672L13.0532 6.16672L13.0532 6.66672L13.5532 6.66672ZM20.0001 6.66672L21.0001 6.66672L21.0001 6.16672L20.0001 6.16672L20.0001 6.66672ZM20.0001 13.3334L20.0001 13.8334L21.0001 13.8334L21.0001 13.3334L20.0001 13.3334ZM14.0532 13.3334L14.0532 6.66672L13.0532 6.66672L13.0532 13.3334L14.0532 13.3334ZM13.5532 7.16672L20.0001 7.16672L20.0001 6.16672L13.5532 6.16672L13.5532 7.16672ZM19.0001 6.66672L19.0001 13.3334L21.0001 13.3334L21.0001 6.66672L19.0001 6.66672ZM20.0001 12.8334L13.5532 12.8334L13.5532 13.8334L20.0001 13.8334L20.0001 12.8334Z" fill="black" mask="url(#path-5-inside-3_94_2789)"/>
<mask id="path-7-inside-4_94_2789" fill="white">
<path d="M13.5532 6.66663L13.5532 -2.81334e-05L20.0001 -2.80565e-05L20.0001 6.66663L13.5532 6.66663Z"/>
</mask>
<path d="M13.5532 6.66663L13.0532 6.66663L13.0532 7.16663L13.5532 7.16663L13.5532 6.66663ZM13.5532 -2.81334e-05L13.5532 -1.00003L13.0532 -1.00003L13.0532 -2.81394e-05L13.5532 -2.81334e-05ZM20.0001 -2.80565e-05L21.0001 -2.80446e-05L21.0001 -1.00003L20.0001 -1.00003L20.0001 -2.80565e-05ZM20.0001 6.66663L20.0001 7.16663L21.0001 7.16663L21.0001 6.66663L20.0001 6.66663ZM14.0532 6.66663L14.0532 -2.81274e-05L13.0532 -2.81394e-05L13.0532 6.66663L14.0532 6.66663ZM13.5532 0.999972L20.0001 0.999972L20.0001 -1.00003L13.5532 -1.00003L13.5532 0.999972ZM19.0001 -2.80684e-05L19.0001 6.66663L21.0001 6.66663L21.0001 -2.80446e-05L19.0001 -2.80684e-05ZM20.0001 6.16663L13.5532 6.16663L13.5532 7.16663L20.0001 7.16663L20.0001 6.16663Z" fill="black" mask="url(#path-7-inside-4_94_2789)"/>
<path d="M3.88696 9.38834L6.69946 9.38834L6.69946 6.57584C6.69946 6.2438 6.99243 5.95084 7.32446 5.95084C7.67603 5.95084 7.94946 6.24381 7.94946 6.57584L7.94946 9.38834L10.762 9.38834C11.1135 9.38834 11.387 9.68131 11.387 10.0133C11.387 10.3649 11.1135 10.6383 10.762 10.6383L7.94946 10.6383L7.94946 13.4508C7.94946 13.8024 7.67603 14.0758 7.32446 14.0758C6.99243 14.0758 6.69946 13.8024 6.69946 13.4508L6.69946 10.6383L3.88696 10.6383C3.55493 10.6383 3.26196 10.3649 3.26196 10.0133C3.26196 9.6813 3.55493 9.38834 3.88696 9.38834Z" fill="black"/>
</svg>
