<svg viewBox="0 0 40 40" fill="none" xmlns="http://www.w3.org/2000/svg">
<rect width="40" height="40" fill="#D9D9D9" fill-opacity="0.01"/>
<mask id="path-2-inside-1_94_2787" fill="white">
<path d="M10 30L10 10L23.5532 10L23.5532 30L10 30Z"/>
</mask>
<path d="M10 30L9 30L9 31L10 31L10 30ZM10 10L10 9.00004L9 9.00004L9 10L10 10ZM23.5532 10L24.0532 10L24.0532 9.00004L23.5532 9.00004L23.5532 10ZM23.5532 30L23.5532 31L24.0532 31L24.0532 30L23.5532 30ZM11 30L11 10L9 10L9 30L11 30ZM10 11L23.5532 11L23.5532 9.00004L10 9.00004L10 11ZM23.0532 10L23.0532 30L24.0532 30L24.0532 10L23.0532 10ZM23.5532 29L10 29L10 31L23.5532 31L23.5532 29Z" fill="black" mask="url(#path-2-inside-1_94_2787)"/>
<mask id="path-4-inside-2_94_2787" fill="white">
<path d="M23.5532 30L23.5532 23.3333L30.0001 23.3333L30.0001 30L23.5532 30Z"/>
</mask>
<path d="M23.5532 30L23.0532 30L23.0532 31L23.5532 31L23.5532 30ZM23.5532 23.3333L23.5532 22.8333L23.0532 22.8333L23.0532 23.3333L23.5532 23.3333ZM30.0001 23.3333L31.0001 23.3333L31.0001 22.8333L30.0001 22.8333L30.0001 23.3333ZM30.0001 30L30.0001 31L31.0001 31L31.0001 30L30.0001 30ZM24.0532 30L24.0532 23.3333L23.0532 23.3333L23.0532 30L24.0532 30ZM23.5532 23.8333L30.0001 23.8333L30.0001 22.8333L23.5532 22.8333L23.5532 23.8333ZM29.0001 23.3333L29.0001 30L31.0001 30L31.0001 23.3333L29.0001 23.3333ZM30.0001 29L23.5532 29L23.5532 31L30.0001 31L30.0001 29Z" fill="black" mask="url(#path-4-inside-2_94_2787)"/>
<mask id="path-6-inside-3_94_2787" fill="white">
<path d="M23.5532 23.3334L23.5532 16.6667L30.0001 16.6667L30.0001 23.3334L23.5532 23.3334Z"/>
</mask>
<path d="M23.5532 23.3334L23.0532 23.3334L23.0532 23.8334L23.5532 23.8334L23.5532 23.3334ZM23.5532 16.6667L23.5532 16.1667L23.0532 16.1667L23.0532 16.6667L23.5532 16.6667ZM30.0001 16.6667L31.0001 16.6667L31.0001 16.1667L30.0001 16.1667L30.0001 16.6667ZM30.0001 23.3334L30.0001 23.8334L31.0001 23.8334L31.0001 23.3334L30.0001 23.3334ZM24.0532 23.3334L24.0532 16.6667L23.0532 16.6667L23.0532 23.3334L24.0532 23.3334ZM23.5532 17.1667L30.0001 17.1667L30.0001 16.1667L23.5532 16.1667L23.5532 17.1667ZM29.0001 16.6667L29.0001 23.3334L31.0001 23.3334L31.0001 16.6667L29.0001 16.6667ZM30.0001 22.8334L23.5532 22.8334L23.5532 23.8334L30.0001 23.8334L30.0001 22.8334Z" fill="black" mask="url(#path-6-inside-3_94_2787)"/>
<mask id="path-8-inside-4_94_2787" fill="white">
<path d="M23.5532 16.6666L23.5532 9.99997L30.0001 9.99997L30.0001 16.6666L23.5532 16.6666Z"/>
</mask>
<path d="M23.5532 16.6666L23.0532 16.6666L23.0532 17.1666L23.5532 17.1666L23.5532 16.6666ZM23.5532 9.99997L23.5532 8.99997L23.0532 8.99997L23.0532 9.99997L23.5532 9.99997ZM30.0001 9.99997L31.0001 9.99997L31.0001 8.99997L30.0001 8.99997L30.0001 9.99997ZM30.0001 16.6666L30.0001 17.1666L31.0001 17.1666L31.0001 16.6666L30.0001 16.6666ZM24.0532 16.6666L24.0532 9.99997L23.0532 9.99997L23.0532 16.6666L24.0532 16.6666ZM23.5532 11L30.0001 11L30.0001 8.99997L23.5532 8.99997L23.5532 11ZM29.0001 9.99997L29.0001 16.6666L31.0001 16.6666L31.0001 9.99997L29.0001 9.99997ZM30.0001 16.1666L23.5532 16.1666L23.5532 17.1666L30.0001 17.1666L30.0001 16.1666Z" fill="black" mask="url(#path-8-inside-4_94_2787)"/>
<path d="M13.887 19.3883L16.6995 19.3883L16.6995 16.5758C16.6995 16.2438 16.9924 15.9508 17.3245 15.9508C17.676 15.9508 17.9495 16.2438 17.9495 16.5758L17.9495 19.3883L20.762 19.3883C21.1135 19.3883 21.387 19.6813 21.387 20.0133C21.387 20.3649 21.1135 20.6383 20.762 20.6383L17.9495 20.6383L17.9495 23.4508C17.9495 23.8024 17.676 24.0758 17.3245 24.0758C16.9924 24.0758 16.6995 23.8024 16.6995 23.4508L16.6995 20.6383L13.887 20.6383C13.5549 20.6383 13.262 20.3649 13.262 20.0133C13.262 19.6813 13.5549 19.3883 13.887 19.3883Z" fill="black"/>
</svg>
