<svg viewBox="0 0 20 20" fill="none" xmlns="http://www.w3.org/2000/svg">
<mask id="path-1-inside-1_94_2797" fill="white">
<path d="M0 0H20V13.5532H0V0Z"/>
</mask>
<path d="M0 0V-1H-1V0H0ZM20 0H21V-1H20V0ZM20 13.5532V14.0532H21V13.5532H20ZM0 13.5532H-1V14.0532H0V13.5532ZM0 1H20V-1H0V1ZM19 0V13.5532H21V0H19ZM20 13.0532H0V14.0532H20V13.0532ZM1 13.5532V0H-1V13.5532H1Z" fill="black" mask="url(#path-1-inside-1_94_2797)"/>
<mask id="path-3-inside-2_94_2797" fill="white">
<path d="M0 13.5532H6.66665V20H0V13.5532Z"/>
</mask>
<path d="M0 13.5532V13.0532H-1V13.5532H0ZM6.66665 13.5532H7.16665V13.0532H6.66665V13.5532ZM6.66665 20V21H7.16665V20H6.66665ZM0 20H-1V21H0V20ZM0 14.0532H6.66665V13.0532H0V14.0532ZM6.16665 13.5532V20H7.16665V13.5532H6.16665ZM6.66665 19H0V21H6.66665V19ZM1 20V13.5532H-1V20H1Z" fill="black" mask="url(#path-3-inside-2_94_2797)"/>
<mask id="path-5-inside-3_94_2797" fill="white">
<path d="M6.66663 13.5532H13.3333V20H6.66663V13.5532Z"/>
</mask>
<path d="M6.66663 13.5532V13.0532H6.16663V13.5532H6.66663ZM13.3333 13.5532H13.8333V13.0532H13.3333V13.5532ZM13.3333 20V21H13.8333V20H13.3333ZM6.66663 20H6.16663V21H6.66663V20ZM6.66663 14.0532H13.3333V13.0532H6.66663V14.0532ZM12.8333 13.5532V20H13.8333V13.5532H12.8333ZM13.3333 19H6.66663V21H13.3333V19ZM7.16663 20V13.5532H6.16663V20H7.16663Z" fill="black" mask="url(#path-5-inside-3_94_2797)"/>
<mask id="path-7-inside-4_94_2797" fill="white">
<path d="M13.3334 13.5532H20V20H13.3334V13.5532Z"/>
</mask>
<path d="M13.3334 13.5532V13.0532H12.8334V13.5532H13.3334ZM20 13.5532H21V13.0532H20V13.5532ZM20 20V21H21V20H20ZM13.3334 20H12.8334V21H13.3334V20ZM13.3334 14.0532H20V13.0532H13.3334V14.0532ZM19 13.5532V20H21V13.5532H19ZM20 19H13.3334V21H20V19ZM13.8334 20V13.5532H12.8334V20H13.8334Z" fill="black" mask="url(#path-7-inside-4_94_2797)"/>
<path d="M10.6117 3.88696V6.69946H13.4242C13.7563 6.69946 14.0492 6.99243 14.0492 7.32446C14.0492 7.67603 13.7563 7.94946 13.4242 7.94946H10.6117V10.762C10.6117 11.1135 10.3188 11.387 9.98672 11.387C9.63516 11.387 9.36172 11.1135 9.36172 10.762V7.94946H6.54922C6.19766 7.94946 5.92422 7.67603 5.92422 7.32446C5.92422 6.99243 6.19766 6.69946 6.54922 6.69946H9.36172V3.88696C9.36172 3.55493 9.63516 3.26196 9.98672 3.26196C10.3188 3.26196 10.6117 3.55493 10.6117 3.88696Z" fill="black"/>
</svg>
