<svg viewBox="0 0 35 38" fill="none" xmlns="http://www.w3.org/2000/svg">
<path d="M22 14.5201C22 15.0826 21.5312 15.5201 21 15.5201H14C13.4375 15.5201 13 15.0826 13 14.5201C13 13.9889 13.4375 13.5201 14 13.5201H21C21.5312 13.5201 22 13.9889 22 14.5201ZM22 22.5201C22 23.0826 21.5312 23.5201 21 23.5201H14C13.4375 23.5201 13 23.0826 13 22.5201C13 21.9889 13.4375 21.5201 14 21.5201H21C21.5312 21.5201 22 21.9889 22 22.5201ZM13 18.5201C13 17.9889 13.4375 17.5201 14 17.5201H26C26.5312 17.5201 27 17.9889 27 18.5201C27 19.0826 26.5312 19.5201 26 19.5201H14C13.4375 19.5201 13 19.0826 13 18.5201ZM27 26.5201C27 27.0826 26.5312 27.5201 26 27.5201H14C13.4375 27.5201 13 27.0826 13 26.5201C13 25.9889 13.4375 25.5201 14 25.5201H26C26.5312 25.5201 27 25.9889 27 26.5201Z" fill="black"/>
</svg>
