<svg viewBox="0 0 15 15" fill="none" xmlns="http://www.w3.org/2000/svg">
<path d="M10.75 0.75C11.1562 0.75 11.5 1.09375 11.5 1.5C11.5 1.9375 11.1562 2.25 10.75 2.25H4.25C3.8125 2.25 3.5 1.9375 3.5 1.5C3.5 1.09375 3.8125 0.75 4.25 0.75H10.75ZM13.75 4.75C14.1562 4.75 14.5 5.09375 14.5 5.5C14.5 5.9375 14.1562 6.25 13.75 6.25H1.25C0.8125 6.25 0.5 5.9375 0.5 5.5C0.5 5.09375 0.8125 4.75 1.25 4.75H13.75ZM3.5 9.5C3.5 9.09375 3.8125 8.75 4.25 8.75H10.75C11.1562 8.75 11.5 9.09375 11.5 9.5C11.5 9.9375 11.1562 10.25 10.75 10.25H4.25C3.8125 10.25 3.5 9.9375 3.5 9.5ZM13.75 12.75C14.1562 12.75 14.5 13.0938 14.5 13.5C14.5 13.9375 14.1562 14.25 13.75 14.25H1.25C0.8125 14.25 0.5 13.9375 0.5 13.5C0.5 13.0938 0.8125 12.75 1.25 12.75H13.75Z" fill="black"/>
</svg>
