<svg viewBox="0 0 15 15" fill="none" xmlns="http://www.w3.org/2000/svg">
<path d="M13.4836 0.75C13.8899 0.75 14.2336 1.09375 14.2336 1.5C14.2336 1.9375 13.8899 2.25 13.4836 2.25H5.98364C5.54614 2.25 5.23364 1.9375 5.23364 1.5C5.23364 1.09375 5.54614 0.75 5.98364 0.75H13.4836ZM13.4836 4.75C13.8899 4.75 14.2336 5.09375 14.2336 5.5C14.2336 5.9375 13.8899 6.25 13.4836 6.25H0.983643C0.546143 6.25 0.233643 5.9375 0.233643 5.5C0.233643 5.09375 0.546143 4.75 0.983643 4.75H13.4836ZM13.4836 10.25H5.98364C5.54614 10.25 5.23364 9.9375 5.23364 9.5C5.23364 9.09375 5.54614 8.75 5.98364 8.75H13.4836C13.8899 8.75 14.2336 9.09375 14.2336 9.5C14.2336 9.9375 13.8899 10.25 13.4836 10.25ZM13.4836 12.75C13.8899 12.75 14.2336 13.0938 14.2336 13.5C14.2336 13.9375 13.8899 14.25 13.4836 14.25H0.983643C0.546143 14.25 0.233643 13.9375 0.233643 13.5C0.233643 13.0938 0.546143 12.75 0.983643 12.75H13.4836Z" fill="black"/>
</svg>
