<svg viewBox="0 0 14 15" fill="none" xmlns="http://www.w3.org/2000/svg">
<path d="M9 1.52014C9 2.08264 8.53125 2.52014 8 2.52014H1C0.4375 2.52014 0 2.08264 0 1.52014C0 0.988892 0.4375 0.520142 1 0.520142H8C8.53125 0.520142 9 0.988892 9 1.52014ZM9 9.52014C9 10.0826 8.53125 10.5201 8 10.5201H1C0.4375 10.5201 0 10.0826 0 9.52014C0 8.98889 0.4375 8.52014 1 8.52014H8C8.53125 8.52014 9 8.98889 9 9.52014ZM0 5.52014C0 4.98889 0.4375 4.52014 1 4.52014H13C13.5312 4.52014 14 4.98889 14 5.52014C14 6.08264 13.5312 6.52014 13 6.52014H1C0.4375 6.52014 0 6.08264 0 5.52014ZM14 13.5201C14 14.0826 13.5312 14.5201 13 14.5201H1C0.4375 14.5201 0 14.0826 0 13.5201C0 12.9889 0.4375 12.5201 1 12.5201H13C13.5312 12.5201 14 12.9889 14 13.5201Z" fill="black"/>
</svg>
