<svg viewBox="0 0 36 38" fill="none" xmlns="http://www.w3.org/2000/svg">
<path d="M21.4836 13.75C21.8899 13.75 22.2336 14.0938 22.2336 14.5C22.2336 14.9375 21.8899 15.25 21.4836 15.25H13.9836C13.5461 15.25 13.2336 14.9375 13.2336 14.5C13.2336 14.0938 13.5461 13.75 13.9836 13.75H21.4836ZM21.4836 17.75C21.8899 17.75 22.2336 18.0938 22.2336 18.5C22.2336 18.9375 21.8899 19.25 21.4836 19.25H8.98364C8.54614 19.25 8.23364 18.9375 8.23364 18.5C8.23364 18.0938 8.54614 17.75 8.98364 17.75H21.4836ZM21.4836 23.25H13.9836C13.5461 23.25 13.2336 22.9375 13.2336 22.5C13.2336 22.0938 13.5461 21.75 13.9836 21.75H21.4836C21.8899 21.75 22.2336 22.0938 22.2336 22.5C22.2336 22.9375 21.8899 23.25 21.4836 23.25ZM21.4836 25.75C21.8899 25.75 22.2336 26.0938 22.2336 26.5C22.2336 26.9375 21.8899 27.25 21.4836 27.25H8.98364C8.54614 27.25 8.23364 26.9375 8.23364 26.5C8.23364 26.0938 8.54614 25.75 8.98364 25.75H21.4836Z" fill="black"/>
</svg>
