<svg viewBox="0 0 35 38" fill="none" xmlns="http://www.w3.org/2000/svg">
<path d="M20.75 13.75C21.1562 13.75 21.5 14.0938 21.5 14.5C21.5 14.9375 21.1562 15.25 20.75 15.25H14.25C13.8125 15.25 13.5 14.9375 13.5 14.5C13.5 14.0938 13.8125 13.75 14.25 13.75H20.75ZM23.75 17.75C24.1562 17.75 24.5 18.0938 24.5 18.5C24.5 18.9375 24.1562 19.25 23.75 19.25H11.25C10.8125 19.25 10.5 18.9375 10.5 18.5C10.5 18.0938 10.8125 17.75 11.25 17.75H23.75ZM13.5 22.5C13.5 22.0938 13.8125 21.75 14.25 21.75H20.75C21.1562 21.75 21.5 22.0938 21.5 22.5C21.5 22.9375 21.1562 23.25 20.75 23.25H14.25C13.8125 23.25 13.5 22.9375 13.5 22.5ZM23.75 25.75C24.1562 25.75 24.5 26.0938 24.5 26.5C24.5 26.9375 24.1562 27.25 23.75 27.25H11.25C10.8125 27.25 10.5 26.9375 10.5 26.5C10.5 26.0938 10.8125 25.75 11.25 25.75H23.75Z" fill="black"/>
</svg>
