<svg viewBox="0 0 40 38" fill="none" xmlns="http://www.w3.org/2000/svg">
<path d="M15.0781 12.7327H19.5215C21.4225 12.7327 22.8613 12.9997 23.8379 13.5335C24.8145 14.0674 25.3027 15.0049 25.3027 16.346C25.3027 16.8864 25.2148 17.3747 25.0391 17.8109C24.8698 18.247 24.6224 18.6051 24.2969 18.8851C23.9714 19.165 23.5742 19.3473 23.1055 19.4319V19.5296C23.5807 19.6273 24.0104 19.7965 24.3945 20.0374C24.7786 20.2718 25.0846 20.6168 25.3125 21.0726C25.5469 21.5218 25.6641 22.1207 25.6641 22.8694C25.6641 23.7353 25.4525 24.4775 25.0293 25.096C24.6061 25.7145 24.0007 26.1898 23.2129 26.5218C22.4316 26.8473 21.5007 27.0101 20.4199 27.0101H15.0781V12.7327ZM18.1055 18.387H19.8633C20.7422 18.387 21.3509 18.2503 21.6895 17.9769C22.028 17.6969 22.1973 17.2868 22.1973 16.7464C22.1973 16.1995 21.9954 15.8089 21.5918 15.5745C21.1947 15.3336 20.5632 15.2132 19.6973 15.2132H18.1055V18.387ZM18.1055 20.7894V24.5101H20.0781C20.9896 24.5101 21.6243 24.3343 21.9824 23.9827C22.3405 23.6312 22.5195 23.1592 22.5195 22.5667C22.5195 22.2151 22.4414 21.9059 22.2852 21.639C22.1289 21.372 21.8652 21.1637 21.4941 21.014C21.1296 20.8642 20.625 20.7894 19.9805 20.7894H18.1055Z" fill="black"/>
</svg>
