<svg width="11" height="15" viewBox="0 0 11 15" fill="none" xmlns="http://www.w3.org/2000/svg">
<path d="M0.078125 0.732727H4.52148C6.42253 0.732727 7.86133 0.999654 8.83789 1.53351C9.81445 2.06736 10.3027 3.00486 10.3027 4.34601C10.3027 4.88637 10.2148 5.37465 10.0391 5.81085C9.86979 6.24705 9.6224 6.60512 9.29688 6.88507C8.97135 7.16502 8.57422 7.34731 8.10547 7.43195V7.5296C8.58073 7.62726 9.01042 7.79653 9.39453 8.03741C9.77865 8.27179 10.0846 8.61684 10.3125 9.07257C10.5469 9.52179 10.6641 10.1207 10.6641 10.8694C10.6641 11.7353 10.4525 12.4775 10.0293 13.096C9.60612 13.7145 9.00065 14.1898 8.21289 14.5218C7.43164 14.8473 6.50065 15.0101 5.41992 15.0101H0.078125V0.732727ZM3.10547 6.38702H4.86328C5.74219 6.38702 6.35091 6.25031 6.68945 5.97687C7.02799 5.69692 7.19727 5.28676 7.19727 4.7464C7.19727 4.19952 6.99544 3.8089 6.5918 3.57452C6.19466 3.33364 5.56315 3.2132 4.69727 3.2132H3.10547V6.38702ZM3.10547 8.78937V12.5101H5.07812C5.98958 12.5101 6.62435 12.3343 6.98242 11.9827C7.34049 11.6312 7.51953 11.1592 7.51953 10.5667C7.51953 10.2151 7.44141 9.9059 7.28516 9.63898C7.12891 9.37205 6.86523 9.16372 6.49414 9.01398C6.12956 8.86424 5.625 8.78937 4.98047 8.78937H3.10547Z" fill="black"/>
</svg>
