<svg viewBox="0 0 40 38" fill="none" xmlns="http://www.w3.org/2000/svg">
<path d="M11.25 13.3125C11.25 12.4531 11.9141 11.75 12.8125 11.75H14.6875C15.5469 11.75 16.25 12.4531 16.25 13.3125V15.1875C16.25 16.0859 15.5469 16.75 14.6875 16.75H12.8125C11.9141 16.75 11.25 16.0859 11.25 15.1875V13.3125ZM11.25 19.5625C11.25 18.7031 11.9141 18 12.8125 18H14.6875C15.5469 18 16.25 18.7031 16.25 19.5625V21.4375C16.25 22.3359 15.5469 23 14.6875 23H12.8125C11.9141 23 11.25 22.3359 11.25 21.4375V19.5625ZM16.25 25.8125V27.6875C16.25 28.5859 15.5469 29.25 14.6875 29.25H12.8125C11.9141 29.25 11.25 28.5859 11.25 27.6875V25.8125C11.25 24.9531 11.9141 24.25 12.8125 24.25H14.6875C15.5469 24.25 16.25 24.9531 16.25 25.8125ZM17.5 13.3125C17.5 12.4531 18.1641 11.75 19.0625 11.75H20.9375C21.7969 11.75 22.5 12.4531 22.5 13.3125V15.1875C22.5 16.0859 21.7969 16.75 20.9375 16.75H19.0625C18.1641 16.75 17.5 16.0859 17.5 15.1875V13.3125ZM22.5 19.5625V21.4375C22.5 22.3359 21.7969 23 20.9375 23H19.0625C18.1641 23 17.5 22.3359 17.5 21.4375V19.5625C17.5 18.7031 18.1641 18 19.0625 18H20.9375C21.7969 18 22.5 18.7031 22.5 19.5625ZM17.5 25.8125C17.5 24.9531 18.1641 24.25 19.0625 24.25H20.9375C21.7969 24.25 22.5 24.9531 22.5 25.8125V27.6875C22.5 28.5859 21.7969 29.25 20.9375 29.25H19.0625C18.1641 29.25 17.5 28.5859 17.5 27.6875V25.8125ZM28.75 13.3125V15.1875C28.75 16.0859 28.0469 16.75 27.1875 16.75H25.3125C24.4141 16.75 23.75 16.0859 23.75 15.1875V13.3125C23.75 12.4531 24.4141 11.75 25.3125 11.75H27.1875C28.0469 11.75 28.75 12.4531 28.75 13.3125ZM23.75 19.5625C23.75 18.7031 24.4141 18 25.3125 18H27.1875C28.0469 18 28.75 18.7031 28.75 19.5625V21.4375C28.75 22.3359 28.0469 23 27.1875 23H25.3125C24.4141 23 23.75 22.3359 23.75 21.4375V19.5625ZM28.75 25.8125V27.6875C28.75 28.5859 28.0469 29.25 27.1875 29.25H25.3125C24.4141 29.25 23.75 28.5859 23.75 27.6875V25.8125C23.75 24.9531 24.4141 24.25 25.3125 24.25H27.1875C28.0469 24.25 28.75 24.9531 28.75 25.8125Z" fill="black"/>
</svg>
