<svg viewBox="0 0 19 17" fill="none" xmlns="http://www.w3.org/2000/svg">
<path d="M1.51489 0.8125C1.88989 0.40625 2.54614 0.40625 2.92114 0.8125L5.48364 3.34375L7.13989 1.6875C8.01489 0.8125 9.42114 0.8125 10.2961 1.6875L15.0461 6.4375C15.9211 7.3125 15.9211 8.71875 15.0461 9.59375L9.07739 15.5625C7.92114 16.7188 6.01489 16.7188 4.85864 15.5625L1.17114 11.875C0.0148926 10.7188 0.0148926 8.8125 1.17114 7.65625L4.04614 4.75L1.51489 2.21875C1.10864 1.84375 1.10864 1.1875 1.51489 0.8125ZM7.01489 7.71875L5.48364 6.1875L2.57739 9.0625C2.45239 9.1875 2.35864 9.34375 2.32739 9.5H12.2961L13.6399 8.1875C13.7336 8.09375 13.7336 7.9375 13.6399 7.84375L8.88989 3.09375C8.79614 3 8.63989 3 8.54614 3.09375L6.88989 4.75L8.42114 6.3125C8.82739 6.6875 8.82739 7.34375 8.42114 7.71875C8.04614 8.125 7.38989 8.125 7.01489 7.71875ZM16.2336 16.5C15.1086 16.5 14.2336 15.625 14.2336 14.5C14.2336 13.7188 15.2336 12.0312 15.8274 11.125C16.0149 10.8125 16.4211 10.8125 16.6086 11.125C17.2024 12.0312 18.2336 13.7188 18.2336 14.5C18.2336 15.625 17.3274 16.5 16.2336 16.5Z" fill="black"/>
</svg>
