<svg viewBox="0 0 19 17" fill="none" xmlns="http://www.w3.org/2000/svg">
<path d="M17.7024 1.53125C18.3899 2.21875 18.3899 3.3125 17.7024 4L9.79614 11.9062L7.32739 9.4375L15.2336 1.53125C15.9211 0.84375 17.0149 0.84375 17.7024 1.53125ZM6.63989 10.125L9.10864 12.5938C9.17114 12.9062 9.23364 13.1875 9.23364 13.5C9.23364 15.4375 7.63989 17 5.73364 17H1.23364C0.671143 17 0.233643 16.5625 0.233643 16C0.233643 15.4688 0.671143 15 1.23364 15H1.35864C1.92114 15 2.29614 14.4375 2.23364 13.875C2.23364 13.75 2.23364 13.625 2.23364 13.5C2.23364 11.5938 3.79614 10 5.73364 10C6.04614 10 6.32739 10.0625 6.63989 10.125Z" fill="black"/>
</svg>
