<svg viewBox="0 0 40 40" fill="none" xmlns="http://www.w3.org/2000/svg">
<rect width="40" height="40" fill="#D9D9D9" fill-opacity="0.01"/>
<mask id="path-2-inside-1_94_2804" fill="white">
<path d="M10 30L10 10L23.5532 10L23.5532 30L10 30Z"/>
</mask>
<path d="M10 30L9 30L9 31L10 31L10 30ZM10 10L10 9.00004L9 9.00004L9 10L10 10ZM23.5532 10L24.0532 10L24.0532 9.00004L23.5532 9.00004L23.5532 10ZM23.5532 30L23.5532 31L24.0532 31L24.0532 30L23.5532 30ZM11 30L11 10L9 10L9 30L11 30ZM10 11L23.5532 11L23.5532 9.00004L10 9.00004L10 11ZM23.0532 10L23.0532 30L24.0532 30L24.0532 10L23.0532 10ZM23.5532 29L10 29L10 31L23.5532 31L23.5532 29Z" fill="black" mask="url(#path-2-inside-1_94_2804)"/>
<mask id="path-4-inside-2_94_2804" fill="white">
<path d="M23.5532 30L23.5532 23.3333L30.0001 23.3333L30.0001 30L23.5532 30Z"/>
</mask>
<path d="M23.5532 30L23.0532 30L23.0532 31L23.5532 31L23.5532 30ZM23.5532 23.3333L23.5532 22.8333L23.0532 22.8333L23.0532 23.3333L23.5532 23.3333ZM30.0001 23.3333L31.0001 23.3333L31.0001 22.8333L30.0001 22.8333L30.0001 23.3333ZM30.0001 30L30.0001 31L31.0001 31L31.0001 30L30.0001 30ZM24.0532 30L24.0532 23.3333L23.0532 23.3333L23.0532 30L24.0532 30ZM23.5532 23.8333L30.0001 23.8333L30.0001 22.8333L23.5532 22.8333L23.5532 23.8333ZM29.0001 23.3333L29.0001 30L31.0001 30L31.0001 23.3333L29.0001 23.3333ZM30.0001 29L23.5532 29L23.5532 31L30.0001 31L30.0001 29Z" fill="black" mask="url(#path-4-inside-2_94_2804)"/>
<mask id="path-6-inside-3_94_2804" fill="white">
<path d="M23.5532 23.3334L23.5532 16.6667L30.0001 16.6667L30.0001 23.3334L23.5532 23.3334Z"/>
</mask>
<path d="M23.5532 23.3334L23.0532 23.3334L23.0532 23.8334L23.5532 23.8334L23.5532 23.3334ZM23.5532 16.6667L23.5532 16.1667L23.0532 16.1667L23.0532 16.6667L23.5532 16.6667ZM30.0001 16.6667L31.0001 16.6667L31.0001 16.1667L30.0001 16.1667L30.0001 16.6667ZM30.0001 23.3334L30.0001 23.8334L31.0001 23.8334L31.0001 23.3334L30.0001 23.3334ZM24.0532 23.3334L24.0532 16.6667L23.0532 16.6667L23.0532 23.3334L24.0532 23.3334ZM23.5532 17.1667L30.0001 17.1667L30.0001 16.1667L23.5532 16.1667L23.5532 17.1667ZM29.0001 16.6667L29.0001 23.3334L31.0001 23.3334L31.0001 16.6667L29.0001 16.6667ZM30.0001 22.8334L23.5532 22.8334L23.5532 23.8334L30.0001 23.8334L30.0001 22.8334Z" fill="black" mask="url(#path-6-inside-3_94_2804)"/>
<mask id="path-8-inside-4_94_2804" fill="white">
<path d="M23.5532 16.6666L23.5532 9.99997L30.0001 9.99997L30.0001 16.6666L23.5532 16.6666Z"/>
</mask>
<path d="M23.5532 16.6666L23.0532 16.6666L23.0532 17.1666L23.5532 17.1666L23.5532 16.6666ZM23.5532 9.99997L23.5532 8.99997L23.0532 8.99997L23.0532 9.99997L23.5532 9.99997ZM30.0001 9.99997L31.0001 9.99997L31.0001 8.99997L30.0001 8.99997L30.0001 9.99997ZM30.0001 16.6666L30.0001 17.1666L31.0001 17.1666L31.0001 16.6666L30.0001 16.6666ZM24.0532 16.6666L24.0532 9.99997L23.0532 9.99997L23.0532 16.6666L24.0532 16.6666ZM23.5532 11L30.0001 11L30.0001 8.99997L23.5532 8.99997L23.5532 11ZM29.0001 9.99997L29.0001 16.6666L31.0001 16.6666L31.0001 9.99997L29.0001 9.99997ZM30.0001 16.1666L23.5532 16.1666L23.5532 17.1666L30.0001 17.1666L30.0001 16.1666Z" fill="black" mask="url(#path-8-inside-4_94_2804)"/>
<path d="M15.26 17.3234L17.2487 19.3122L19.2375 17.3234C19.4722 17.0886 19.8866 17.0886 20.1213 17.3234C20.3699 17.572 20.3561 17.9725 20.1213 18.2073L18.1326 20.196L20.1213 22.1848C20.3699 22.4334 20.3561 22.8339 20.1213 23.0687C19.8727 23.3173 19.486 23.3173 19.2375 23.0687L17.2487 21.0799L15.26 23.0687C15.0114 23.3173 14.6247 23.3173 14.3761 23.0687C14.1413 22.8339 14.1275 22.4334 14.3761 22.1848L16.3648 20.196L14.3761 18.2073C14.1413 17.9725 14.1275 17.572 14.3761 17.3234C14.6109 17.0886 15.0252 17.0886 15.26 17.3234Z" fill="#BF0000"/>
</svg>
