<svg viewBox="0 0 40 40" fill="none" xmlns="http://www.w3.org/2000/svg">
<rect width="40" height="40" fill="#D9D9D9" fill-opacity="0.01"/>
<mask id="path-2-inside-1_94_2812" fill="white">
<path d="M10 10H30V23.5532H10V10Z"/>
</mask>
<path d="M10 10V9H9V10H10ZM30 10H31V9H30V10ZM30 23.5532V24.0532H31V23.5532H30ZM10 23.5532H9V24.0532H10V23.5532ZM10 11H30V9H10V11ZM29 10V23.5532H31V10H29ZM30 23.0532H10V24.0532H30V23.0532ZM11 23.5532V10H9V23.5532H11Z" fill="black" mask="url(#path-2-inside-1_94_2812)"/>
<mask id="path-4-inside-2_94_2812" fill="white">
<path d="M10 23.5532H16.6667V30H10V23.5532Z"/>
</mask>
<path d="M10 23.5532V23.0532H9V23.5532H10ZM16.6667 23.5532H17.1667V23.0532H16.6667V23.5532ZM16.6667 30V31H17.1667V30H16.6667ZM10 30H9V31H10V30ZM10 24.0532H16.6667V23.0532H10V24.0532ZM16.1667 23.5532V30H17.1667V23.5532H16.1667ZM16.6667 29H10V31H16.6667V29ZM11 30V23.5532H9V30H11Z" fill="black" mask="url(#path-4-inside-2_94_2812)"/>
<mask id="path-6-inside-3_94_2812" fill="white">
<path d="M16.6666 23.5532H23.3333V30H16.6666V23.5532Z"/>
</mask>
<path d="M16.6666 23.5532V23.0532H16.1666V23.5532H16.6666ZM23.3333 23.5532H23.8333V23.0532H23.3333V23.5532ZM23.3333 30V31H23.8333V30H23.3333ZM16.6666 30H16.1666V31H16.6666V30ZM16.6666 24.0532H23.3333V23.0532H16.6666V24.0532ZM22.8333 23.5532V30H23.8333V23.5532H22.8333ZM23.3333 29H16.6666V31H23.3333V29ZM17.1666 30V23.5532H16.1666V30H17.1666Z" fill="black" mask="url(#path-6-inside-3_94_2812)"/>
<mask id="path-8-inside-4_94_2812" fill="white">
<path d="M23.3334 23.5532H30V30H23.3334V23.5532Z"/>
</mask>
<path d="M23.3334 23.5532V23.0532H22.8334V23.5532H23.3334ZM30 23.5532H31V23.0532H30V23.5532ZM30 30V31H31V30H30ZM23.3334 30H22.8334V31H23.3334V30ZM23.3334 24.0532H30V23.0532H23.3334V24.0532ZM29 23.5532V30H31V23.5532H29ZM30 29H23.3334V31H30V29ZM23.8334 30V23.5532H22.8334V30H23.8334Z" fill="black" mask="url(#path-8-inside-4_94_2812)"/>
<path d="M18.1808 14.3762L20.1696 16.3649L22.1583 14.3762C22.3931 14.1414 22.8074 14.1414 23.0422 14.3762C23.2908 14.6248 23.277 15.0253 23.0422 15.26L21.0535 17.2488L23.0422 19.2375C23.2908 19.4861 23.277 19.8866 23.0422 20.1214C22.7936 20.37 22.4069 20.37 22.1583 20.1214L20.1696 18.1327L18.1808 20.1214C17.9323 20.37 17.5456 20.37 17.297 20.1214C17.0622 19.8866 17.0484 19.4861 17.297 19.2375L19.2857 17.2488L17.297 15.26C17.0622 15.0253 17.0484 14.6248 17.297 14.3762C17.5317 14.1414 17.9461 14.1414 18.1808 14.3762Z" fill="#BF0000"/>
</svg>
