<svg viewBox="0 0 40 38" fill="none" xmlns="http://www.w3.org/2000/svg">
<path d="M24.1221 23.5101L22.54 19.4319H17.3896L15.8164 23.5101H14.3047L19.332 10.6077H20.6768L25.6689 23.5101H24.1221ZM22.0918 18.1048L20.5889 14.053C20.5537 13.9476 20.4951 13.7747 20.4131 13.5345C20.3369 13.2943 20.2578 13.0452 20.1758 12.7874C20.0938 12.5296 20.0264 12.3216 19.9736 12.1634C19.915 12.4036 19.8506 12.6439 19.7803 12.8841C19.7158 13.1185 19.6514 13.3382 19.5869 13.5433C19.5225 13.7425 19.4668 13.9124 19.4199 14.053L17.8906 18.1048H22.0918Z" fill="black"/>
<rect x="10" y="25.5101" width="20" height="4" fill="currentColor"/>
</svg>
