<svg viewBox="0 0 20 20" fill="none" xmlns="http://www.w3.org/2000/svg">
<path d="M14.1221 13.5101L12.54 9.43195H7.38965L5.81641 13.5101H4.30469L9.33203 0.607727H10.6768L15.6689 13.5101H14.1221ZM12.0918 8.1048L10.5889 4.05304C10.5537 3.94757 10.4951 3.77472 10.4131 3.53448C10.3369 3.29425 10.2578 3.04523 10.1758 2.78741C10.0938 2.5296 10.0264 2.32159 9.97363 2.16339C9.91504 2.40363 9.85059 2.64386 9.78027 2.88409C9.71582 3.11847 9.65137 3.3382 9.58691 3.54327C9.52246 3.74249 9.4668 3.91241 9.41992 4.05304L7.89062 8.1048H12.0918Z" fill="black"/>
<rect y="15.5101" width="20" height="4" fill="currentColor"/>
</svg>
