<svg viewBox="0 0 21 15" fill="none" xmlns="http://www.w3.org/2000/svg">
<path d="M3.63141 12.8349H2.68219V6.76456C2.68219 6.53409 2.68219 6.33682 2.68219 6.17276C2.6861 6.00479 2.69 5.85245 2.69391 5.71573C2.70172 5.5751 2.71149 5.43253 2.72321 5.28799C2.60211 5.41299 2.48883 5.52042 2.38336 5.61026C2.27789 5.6962 2.14703 5.80362 1.99078 5.93253L1.01227 6.71768L0.502502 6.05557L2.82281 4.26846H3.63141V12.8349ZM7.16461 12.2255C7.16461 11.9521 7.23102 11.7587 7.36383 11.6454C7.49664 11.5282 7.65875 11.4696 7.85016 11.4696C8.04938 11.4696 8.21735 11.5282 8.35406 11.6454C8.49078 11.7587 8.55914 11.9521 8.55914 12.2255C8.55914 12.495 8.49078 12.6923 8.35406 12.8173C8.21735 12.9384 8.04938 12.9989 7.85016 12.9989C7.65875 12.9989 7.49664 12.9384 7.36383 12.8173C7.23102 12.6923 7.16461 12.495 7.16461 12.2255ZM20.188 13.9286C20.188 14.3114 19.8873 14.5849 19.5318 14.5849C18.356 14.5849 17.317 14.0107 16.688 13.1357C16.0318 14.0107 14.9927 14.5849 13.8443 14.5849C13.4615 14.5849 13.188 14.3114 13.188 13.9286C13.188 13.5732 13.4615 13.2724 13.8443 13.2724C15.0474 13.2724 16.0318 12.3153 16.0318 11.0849V8.24112H15.1568C14.774 8.24112 14.5005 7.96768 14.5005 7.58487C14.5005 7.2294 14.774 6.92862 15.1568 6.92862H16.0318V4.08487C16.0318 2.88174 15.0474 1.89737 13.8443 1.89737C13.4615 1.89737 13.188 1.62393 13.188 1.24112C13.188 0.885651 13.4615 0.584869 13.8443 0.584869C14.9927 0.584869 16.0318 1.18643 16.688 2.06143C17.317 1.18643 18.356 0.584869 19.5318 0.584869C19.8873 0.584869 20.188 0.885651 20.188 1.24112C20.188 1.62393 19.8873 1.89737 19.5318 1.89737C18.3013 1.89737 17.3443 2.88174 17.3443 4.08487V6.92862H18.2193C18.5748 6.92862 18.8755 7.2294 18.8755 7.58487C18.8755 7.96768 18.5748 8.24112 18.2193 8.24112H17.3443V11.0849C17.3443 12.3153 18.3013 13.2724 19.5318 13.2724C19.8873 13.2724 20.188 13.5732 20.188 13.9286Z" fill="#333333"/>
</svg>
