<svg viewBox="0 0 18 19" fill="none" xmlns="http://www.w3.org/2000/svg">
<path d="M15.2482 18.019H2.74817C1.34192 18.019 0.248169 16.9252 0.248169 15.519V3.019C0.248169 1.65181 1.34192 0.518997 2.74817 0.518997H15.2482C16.6154 0.518997 17.7482 1.65181 17.7482 3.019V15.519C17.7482 16.9252 16.6154 18.019 15.2482 18.019ZM8.99817 13.019C9.23254 13.019 9.50598 12.9409 9.66223 12.7456L13.7247 8.37056C13.9982 8.09712 14.0372 7.7065 13.92 7.35493C13.7638 7.00337 13.4122 6.769 13.0607 6.769H4.93567C4.54504 6.769 4.19348 7.00337 4.07629 7.35493C3.92004 7.7065 3.95911 8.09712 4.23254 8.37056L8.29504 12.7456C8.49036 12.9409 8.72473 13.019 8.99817 13.019Z" fill="#333333"/>
</svg>
