<svg viewBox="0 0 22 15" fill="none" xmlns="http://www.w3.org/2000/svg">
<path d="M6.87524 12.8349L5.82056 10.1161H2.38696L1.33813 12.8349H0.330322L3.68188 4.23331H4.57837L7.90649 12.8349H6.87524ZM5.52173 9.23135L4.51978 6.53018C4.49634 6.45987 4.45728 6.34464 4.40259 6.18448C4.35181 6.02432 4.29907 5.85831 4.24438 5.68643C4.1897 5.51456 4.14478 5.37589 4.10962 5.27042C4.07056 5.43057 4.02759 5.59073 3.98071 5.75089C3.93774 5.90714 3.89478 6.05362 3.85181 6.19034C3.80884 6.32315 3.77173 6.43643 3.74048 6.53018L2.72095 9.23135H5.52173ZM8.80298 12.2255C8.80298 11.9521 8.86938 11.7587 9.0022 11.6454C9.13501 11.5282 9.29712 11.4696 9.48853 11.4696C9.68774 11.4696 9.85571 11.5282 9.99243 11.6454C10.1292 11.7587 10.1975 11.9521 10.1975 12.2255C10.1975 12.495 10.1292 12.6923 9.99243 12.8173C9.85571 12.9384 9.68774 12.9989 9.48853 12.9989C9.29712 12.9989 9.13501 12.9384 9.0022 12.8173C8.86938 12.6923 8.80298 12.495 8.80298 12.2255ZM21.8264 13.9286C21.8264 14.3114 21.5256 14.5849 21.1702 14.5849C19.9944 14.5849 18.9553 14.0107 18.3264 13.1357C17.6702 14.0107 16.6311 14.5849 15.4827 14.5849C15.0999 14.5849 14.8264 14.3114 14.8264 13.9286C14.8264 13.5732 15.0999 13.2724 15.4827 13.2724C16.6858 13.2724 17.6702 12.3153 17.6702 11.0849V8.24112H16.7952C16.4124 8.24112 16.1389 7.96768 16.1389 7.58487C16.1389 7.2294 16.4124 6.92862 16.7952 6.92862H17.6702V4.08487C17.6702 2.88174 16.6858 1.89737 15.4827 1.89737C15.0999 1.89737 14.8264 1.62393 14.8264 1.24112C14.8264 0.885651 15.0999 0.584869 15.4827 0.584869C16.6311 0.584869 17.6702 1.18643 18.3264 2.06143C18.9553 1.18643 19.9944 0.584869 21.1702 0.584869C21.5256 0.584869 21.8264 0.885651 21.8264 1.24112C21.8264 1.62393 21.5256 1.89737 21.1702 1.89737C19.9397 1.89737 18.9827 2.88174 18.9827 4.08487V6.92862H19.8577C20.2131 6.92862 20.5139 7.2294 20.5139 7.58487C20.5139 7.96768 20.2131 8.24112 19.8577 8.24112H18.9827V11.0849C18.9827 12.3153 19.9397 13.2724 21.1702 13.2724C21.5256 13.2724 21.8264 13.5732 21.8264 13.9286Z" fill="#333333"/>
</svg>
