<svg viewBox="0 0 40 38" fill="none" xmlns="http://www.w3.org/2000/svg">
<path d="M11 20.5101C11 17.7601 13.2188 15.5101 16 15.5101H18C18.5312 15.5101 19 15.9788 19 16.5101C19 17.0726 18.5312 17.5101 18 17.5101H16C14.3438 17.5101 13 18.8538 13 20.5101C13 22.1663 14.3438 23.5101 16 23.5101H18C18.5312 23.5101 19 23.9788 19 24.5101C19 25.0726 18.5312 25.5101 18 25.5101H16C13.2188 25.5101 11 23.2913 11 20.5101ZM29 20.5101C29 23.2913 26.75 25.5101 24 25.5101H22C21.4375 25.5101 21 25.0726 21 24.5101C21 23.9788 21.4375 23.5101 22 23.5101H24C25.6562 23.5101 27 22.1663 27 20.5101C27 18.8538 25.6562 17.5101 24 17.5101H22C21.4375 17.5101 21 17.0726 21 16.5101C21 15.9788 21.4375 15.5101 22 15.5101H24C26.75 15.5101 29 17.7601 29 20.5101ZM17 19.5101H23C23.5312 19.5101 24 19.9788 24 20.5101C24 21.0726 23.5312 21.5101 23 21.5101H17C16.4375 21.5101 16 21.0726 16 20.5101C16 19.9788 16.4375 19.5101 17 19.5101Z" fill="black"/>
</svg>
