<svg viewBox="0 0 40 40" fill="none" xmlns="http://www.w3.org/2000/svg">
<path d="M20 24.5625C21.1719 24.5625 22.1875 25.5781 22.1875 26.75C22.1875 27.9609 21.1719 28.9375 20 28.9375C18.7891 28.9375 17.8125 27.9609 17.8125 26.75C17.8125 25.5781 18.7891 24.5625 20 24.5625ZM20 18.3125C21.1719 18.3125 22.1875 19.3281 22.1875 20.5C22.1875 21.7109 21.1719 22.6875 20 22.6875C18.7891 22.6875 17.8125 21.7109 17.8125 20.5C17.8125 19.3281 18.7891 18.3125 20 18.3125ZM22.1875 14.25C22.1875 15.4609 21.1719 16.4375 20 16.4375C18.7891 16.4375 17.8125 15.4609 17.8125 14.25C17.8125 13.0781 18.7891 12.0625 20 12.0625C21.1719 12.0625 22.1875 13.0781 22.1875 14.25Z" fill="black"/>
</svg>
