<svg viewBox="0 0 40 40" fill="none" xmlns="http://www.w3.org/2000/svg">
<path d="M21.9922 11.8672C22.4219 11.6719 22.9688 11.75 23.3203 12.1016L29.5703 17.7266C29.8438 17.9609 30 18.2734 30 18.625C30 19.0156 29.8438 19.3281 29.5703 19.5625L23.3203 25.1875C22.9688 25.5391 22.4219 25.6172 21.9922 25.4219C21.5234 25.2266 21.25 24.7578 21.25 24.25V21.75H17.5C15.4297 21.75 13.75 23.4297 13.75 25.5C13.75 26.7109 14.2188 27.375 14.6094 27.7266C14.8047 27.9219 15 28.1953 15 28.5078C15 28.9375 14.6484 29.25 14.2188 29.25C14.1016 29.25 13.9844 29.25 13.9062 29.2109C13.1641 28.7812 10 26.8281 10 22.375C10 18.5859 13.0469 15.5 16.875 15.5H21.25V13C21.25 12.5312 21.5234 12.0625 21.9922 11.8672Z" fill="black"/>
</svg>
