<svg viewBox="0 0 40 38" fill="none" xmlns="http://www.w3.org/2000/svg">
<path d="M17.0312 17.0101C17 17.4163 17.0625 17.6976 17.1562 17.8851C17.25 18.0726 17.4375 18.2913 17.7188 18.4788C18.3438 18.8851 19.25 19.1663 20.375 19.5101H20.4062H20.4375H27C27.5312 19.5101 28 19.9788 28 20.5101C28 21.0726 27.5312 21.5101 27 21.5101H13C12.4375 21.5101 12 21.0726 12 20.5101C12 19.9788 12.4375 19.5101 13 19.5101H15.875C15.6875 19.2913 15.5 19.0726 15.375 18.7913C15.0625 18.1976 14.9688 17.5101 15.0312 16.7601C15.0312 16.7288 15.0625 16.7288 15.0625 16.6976C15.2812 15.3851 16.1562 14.4788 17.2812 13.9788C18.4062 13.5101 19.75 13.4163 21.1562 13.6351C21.5625 13.6976 22.7812 13.9476 23.25 14.0413C23.7812 14.1976 24.0938 14.7601 23.9375 15.2913C23.8125 15.8226 23.25 16.1351 22.7188 15.9788C22.375 15.8851 21.2188 15.6663 20.8438 15.6038C19.6875 15.4476 18.75 15.5413 18.0938 15.8226C17.4688 16.0726 17.125 16.4788 17.0312 17.0101ZM22.875 23.0726H22.9062C22.8125 22.8851 22.6875 22.6976 22.4688 22.5413H24.8125C25 23.0726 25.0312 23.6976 24.9062 24.3538C24.6875 25.6663 23.8125 26.5726 22.6875 27.0726C21.5625 27.5413 20.2188 27.6351 18.8125 27.4163C18.0625 27.2913 16.8438 26.8851 16.0625 26.6038C15.9062 26.5726 15.7812 26.5101 15.6562 26.4788C15.1562 26.2913 14.875 25.7288 15.0312 25.1976C15.2188 24.6976 15.7812 24.4163 16.3125 24.5726C16.4688 24.6351 16.625 24.6976 16.8125 24.7601C17.5938 25.0101 18.5625 25.3538 19.125 25.4476C20.2812 25.6038 21.2188 25.5101 21.875 25.2288C22.5312 24.9788 22.8438 24.5413 22.9375 24.0101C23.0312 23.5413 22.9688 23.2601 22.875 23.0726Z" fill="black"/>
</svg>
