<svg viewBox="0 0 40 38" fill="currentColor" xmlns="http://www.w3.org/2000/svg">
<path d="M18.0078 11.8672C18.4375 12.0625 18.75 12.5312 18.75 13V15.5H23.125C26.9141 15.5 30 18.5859 30 22.375C30 26.8281 26.7969 28.7812 26.0547 29.2109C25.9766 29.25 25.8594 29.25 25.7422 29.25C25.3125 29.25 25 28.9375 25 28.5078C25 28.1953 25.1562 27.9219 25.3516 27.7266C25.7422 27.375 26.25 26.7109 26.25 25.5391C26.25 23.4688 24.5703 21.7891 22.5 21.7891H18.75V24.2891C18.75 24.7578 18.4375 25.2266 18.0078 25.4219C17.5391 25.6172 17.0312 25.5391 16.6406 25.1875L10.3906 19.5625C10.1172 19.3281 10 19.0156 10 18.625C10 18.2734 10.1172 17.9609 10.3906 17.7266L16.6406 12.1016C17.0312 11.75 17.5391 11.6719 18.0078 11.8672Z" fill="black"/>
</svg>
